<?xml version="1.0" encoding="UTF-8" standalone="no"?>
<!DOCTYPE svg PUBLIC "-//W3C//DTD SVG 1.1//EN"
 "http://www.w3.org/Graphics/SVG/1.1/DTD/svg11.dtd">
<!-- Generated by graphviz version 2.50.0 (0)
 -->
<!-- Pages: 1 -->
<svg width="1039pt" height="394pt"
 viewBox="0.00 0.00 1039.00 394.00" xmlns="http://www.w3.org/2000/svg" xmlns:xlink="http://www.w3.org/1999/xlink">
<g id="graph0" class="graph" transform="scale(1 1) rotate(0) translate(4 390)">
<polygon fill="white" stroke="transparent" points="-4,4 -4,-390 1035,-390 1035,4 -4,4"/>
<!-- fake -->
<g id="node1" class="node">
<title>fake</title>
</g>
<!-- 0 -->
<g id="node2" class="node">
<title>0</title>
<ellipse fill="none" stroke="black" cx="643" cy="-291" rx="18" ry="18"/>
<ellipse fill="none" stroke="black" cx="643" cy="-291" rx="22" ry="22"/>
<text text-anchor="middle" x="643" y="-287.3" font-family="Times,serif" font-size="14.00">0</text>
</g>
<!-- fake&#45;&gt;0 -->
<g id="edge1" class="edge">
<title>fake&#45;&gt;0</title>
<path fill="none" stroke="black" stroke-width="2" d="M643,-349.98C643,-342.15 643,-332.61 643,-323.54"/>
<polygon fill="black" stroke="black" stroke-width="2" points="646.5,-323.24 643,-313.24 639.5,-323.24 646.5,-323.24"/>
</g>
<!-- 1 -->
<g id="node3" class="node">
<title>1</title>
<ellipse fill="none" stroke="black" cx="227" cy="-200" rx="27" ry="18"/>
<text text-anchor="middle" x="227" y="-196.3" font-family="Times,serif" font-size="14.00">1</text>
</g>
<!-- 0&#45;&gt;1 -->
<g id="edge8" class="edge">
<title>0&#45;&gt;1</title>
<path fill="none" stroke="black" d="M621.51,-285.4C554.02,-270.96 345.83,-226.42 262.26,-208.54"/>
<polygon fill="black" stroke="black" points="262.75,-205.07 252.24,-206.4 261.28,-211.91 262.75,-205.07"/>
<text text-anchor="middle" x="539" y="-239.8" font-family="Times,serif" font-size="14.00">a_submitted_complete</text>
</g>
<!-- 3 -->
<g id="node5" class="node">
<title>3</title>
<ellipse fill="none" stroke="black" cx="365" cy="-109" rx="18" ry="18"/>
<ellipse fill="none" stroke="black" cx="365" cy="-109" rx="22" ry="22"/>
<text text-anchor="middle" x="365" y="-105.3" font-family="Times,serif" font-size="14.00">3</text>
</g>
<!-- 0&#45;&gt;3 -->
<g id="edge7" class="edge">
<title>0&#45;&gt;3</title>
<path fill="none" stroke="black" d="M664.49,-284.88C728.37,-268.76 908.88,-216.09 847,-149 816.56,-116 500.4,-110.92 397.31,-110.14"/>
<polygon fill="black" stroke="black" points="397.21,-106.64 387.19,-110.07 397.16,-113.64 397.21,-106.64"/>
<text text-anchor="middle" x="945" y="-196.3" font-family="Times,serif" font-size="14.00">~a_submitted_complete</text>
</g>
<!-- 1&#45;&gt;1 -->
<g id="edge5" class="edge">
<title>1&#45;&gt;1</title>
<path fill="none" stroke="black" d="M251.53,-207.75C262.51,-208.49 272,-205.91 272,-200 272,-196.03 267.72,-193.56 261.57,-192.59"/>
<polygon fill="black" stroke="black" points="261.65,-189.09 251.53,-192.25 261.41,-196.09 261.65,-189.09"/>
<text text-anchor="middle" x="464.5" y="-196.3" font-family="Times,serif" font-size="14.00">a_partlysubmitted_complete &amp; a_submitted_complete</text>
</g>
<!-- 2 -->
<g id="node4" class="node">
<title>2</title>
<ellipse fill="none" stroke="black" cx="27" cy="-18" rx="27" ry="18"/>
<text text-anchor="middle" x="27" y="-14.3" font-family="Times,serif" font-size="14.00">2</text>
</g>
<!-- 1&#45;&gt;2 -->
<g id="edge10" class="edge">
<title>1&#45;&gt;2</title>
<path fill="none" stroke="black" d="M199.98,-198.14C151.9,-196 54.47,-188.64 33,-164 4.74,-131.58 11.5,-77.92 19.14,-45.77"/>
<polygon fill="black" stroke="black" points="22.62,-46.3 21.72,-35.75 15.84,-44.56 22.62,-46.3"/>
<text text-anchor="middle" x="124.5" y="-105.3" font-family="Times,serif" font-size="14.00">~a_partlysubmitted_complete</text>
</g>
<!-- 1&#45;&gt;3 -->
<g id="edge3" class="edge">
<title>1&#45;&gt;3</title>
<path fill="none" stroke="black" d="M199.73,-199.81C138.86,-200.8 0.63,-197.9 45,-149 58.88,-133.71 209.51,-133.59 230,-131 265.32,-126.54 305.62,-120.09 332.93,-115.52"/>
<polygon fill="black" stroke="black" points="333.8,-118.92 343.07,-113.81 332.63,-112.02 333.8,-118.92"/>
<text text-anchor="middle" x="243.5" y="-152.8" font-family="Times,serif" font-size="14.00">a_partlysubmitted_complete &amp; ~a_submitted_complete</text>
</g>
<!-- 2&#45;&gt;2 -->
<g id="edge6" class="edge">
<title>2&#45;&gt;2</title>
<path fill="none" stroke="black" d="M51.53,-25.75C62.51,-26.49 72,-23.91 72,-18 72,-14.03 67.72,-11.56 61.57,-10.59"/>
<polygon fill="black" stroke="black" points="61.65,-7.09 51.53,-10.25 61.41,-14.09 61.65,-7.09"/>
<text text-anchor="middle" x="89" y="-14.3" font-family="Times,serif" font-size="14.00">True</text>
</g>
<!-- 3&#45;&gt;1 -->
<g id="edge4" class="edge">
<title>3&#45;&gt;1</title>
<path fill="none" stroke="black" d="M386.36,-115.53C415.24,-124.01 461.04,-141.61 442,-164 419.62,-190.32 319.65,-196.9 264.26,-198.51"/>
<polygon fill="black" stroke="black" points="264.05,-195.01 254.14,-198.76 264.22,-202.01 264.05,-195.01"/>
<text text-anchor="middle" x="644.5" y="-152.8" font-family="Times,serif" font-size="14.00">a_submitted_complete &amp; ~a_partlysubmitted_complete</text>
</g>
<!-- 3&#45;&gt;2 -->
<g id="edge9" class="edge">
<title>3&#45;&gt;2</title>
<path fill="none" stroke="black" d="M343.86,-102.43C287.22,-87.52 131.66,-46.56 61.78,-28.16"/>
<polygon fill="black" stroke="black" points="62.29,-24.67 51.73,-25.51 60.5,-31.44 62.29,-24.67"/>
<text text-anchor="middle" x="317.5" y="-57.8" font-family="Times,serif" font-size="14.00">a_partlysubmitted_complete</text>
</g>
<!-- 3&#45;&gt;3 -->
<g id="edge2" class="edge">
<title>3&#45;&gt;3</title>
<path fill="none" stroke="black" d="M385.58,-117.37C395.84,-118.53 405,-115.74 405,-109 405,-104.68 401.24,-101.99 395.84,-100.91"/>
<polygon fill="black" stroke="black" points="395.67,-97.41 385.58,-100.63 395.48,-104.4 395.67,-97.41"/>
<text text-anchor="middle" x="609.5" y="-105.3" font-family="Times,serif" font-size="14.00">~a_partlysubmitted_complete &amp; ~a_submitted_complete</text>
</g>
</g>
</svg>
