<?xml version="1.0" encoding="UTF-8" standalone="no"?>
<!DOCTYPE svg PUBLIC "-//W3C//DTD SVG 1.1//EN"
 "http://www.w3.org/Graphics/SVG/1.1/DTD/svg11.dtd">
<!-- Generated by graphviz version 2.50.0 (0)
 -->
<!-- Pages: 1 -->
<svg width="2645pt" height="1038pt"
 viewBox="0.00 0.00 2645.00 1038.47" xmlns="http://www.w3.org/2000/svg" xmlns:xlink="http://www.w3.org/1999/xlink">
<g id="graph0" class="graph" transform="scale(1 1) rotate(0) translate(4 1034.47)">
<polygon fill="white" stroke="transparent" points="-4,4 -4,-1034.47 2641,-1034.47 2641,4 -4,4"/>
<!-- fake -->
<g id="node1" class="node">
<title>fake</title>
</g>
<!-- 0 -->
<g id="node2" class="node">
<title>0</title>
<ellipse fill="none" stroke="black" cx="1200" cy="-935.47" rx="18" ry="18"/>
<ellipse fill="none" stroke="black" cx="1200" cy="-935.47" rx="22" ry="22"/>
<text text-anchor="middle" x="1200" y="-931.77" font-family="Times,serif" font-size="14.00">0</text>
</g>
<!-- fake&#45;&gt;0 -->
<g id="edge1" class="edge">
<title>fake&#45;&gt;0</title>
<path fill="none" stroke="black" stroke-width="2" d="M1200,-994.45C1200,-986.63 1200,-977.08 1200,-968.01"/>
<polygon fill="black" stroke="black" stroke-width="2" points="1203.5,-967.72 1200,-957.72 1196.5,-967.72 1203.5,-967.72"/>
</g>
<!-- 1 -->
<g id="node3" class="node">
<title>1</title>
<ellipse fill="none" stroke="black" cx="662" cy="-735.98" rx="18" ry="18"/>
<ellipse fill="none" stroke="black" cx="662" cy="-735.98" rx="22" ry="22"/>
<text text-anchor="middle" x="662" y="-732.28" font-family="Times,serif" font-size="14.00">1</text>
</g>
<!-- 0&#45;&gt;1 -->
<g id="edge34" class="edge">
<title>0&#45;&gt;1</title>
<path fill="none" stroke="black" d="M1178.85,-928.35C1138.51,-916.55 1047.89,-889.41 973,-862.47 868.04,-824.71 746.01,-773.19 691.23,-749.64"/>
<polygon fill="black" stroke="black" points="692.38,-746.33 681.81,-745.58 689.61,-752.76 692.38,-746.33"/>
<text text-anchor="middle" x="1020" y="-832.02" font-family="Times,serif" font-size="14.00">c0 &amp; c1 &amp; c2</text>
</g>
<!-- 2 -->
<g id="node4" class="node">
<title>2</title>
<ellipse fill="none" stroke="black" cx="1098" cy="-835.72" rx="18" ry="18"/>
<ellipse fill="none" stroke="black" cx="1098" cy="-835.72" rx="22" ry="22"/>
<text text-anchor="middle" x="1098" y="-832.02" font-family="Times,serif" font-size="14.00">2</text>
</g>
<!-- 0&#45;&gt;2 -->
<g id="edge2" class="edge">
<title>0&#45;&gt;2</title>
<path fill="none" stroke="black" d="M1183.91,-920.2C1175.76,-912.89 1165.77,-903.8 1157,-895.47 1144.74,-883.82 1131.36,-870.55 1120.45,-859.57"/>
<polygon fill="black" stroke="black" points="1122.86,-857.03 1113.33,-852.38 1117.88,-861.95 1122.86,-857.03"/>
<text text-anchor="middle" x="1171.5" y="-884.27" font-family="Times,serif" font-size="14.00">~c1</text>
</g>
<!-- 6 -->
<g id="node8" class="node">
<title>6</title>
<ellipse fill="none" stroke="black" cx="1199" cy="-531.73" rx="18" ry="18"/>
<ellipse fill="none" stroke="black" cx="1199" cy="-531.73" rx="22" ry="22"/>
<text text-anchor="middle" x="1199" y="-528.03" font-family="Times,serif" font-size="14.00">6</text>
</g>
<!-- 0&#45;&gt;6 -->
<g id="edge48" class="edge">
<title>0&#45;&gt;6</title>
<path fill="none" stroke="black" d="M1200,-913.12C1200,-893.31 1200,-863.03 1200,-836.72 1200,-836.72 1200,-836.72 1200,-635.23 1200,-611.39 1199.73,-584.45 1199.47,-564.16"/>
<polygon fill="black" stroke="black" points="1202.96,-563.88 1199.33,-553.93 1195.96,-563.98 1202.96,-563.88"/>
<text text-anchor="middle" x="1253" y="-732.28" font-family="Times,serif" font-size="14.00">c0 &amp; c1 &amp; ~c2</text>
</g>
<!-- 7 -->
<g id="node9" class="node">
<title>7</title>
<ellipse fill="none" stroke="black" cx="1827" cy="-735.98" rx="18" ry="18"/>
<ellipse fill="none" stroke="black" cx="1827" cy="-735.98" rx="22" ry="22"/>
<text text-anchor="middle" x="1827" y="-732.28" font-family="Times,serif" font-size="14.00">7</text>
</g>
<!-- 0&#45;&gt;7 -->
<g id="edge106" class="edge">
<title>0&#45;&gt;7</title>
<path fill="none" stroke="black" d="M1220.3,-926.47C1273.73,-905.55 1422.93,-848.18 1550,-808.98 1638.17,-781.77 1744.19,-756.15 1795.76,-744.13"/>
<polygon fill="black" stroke="black" points="1796.67,-747.51 1805.62,-741.84 1795.09,-740.69 1796.67,-747.51"/>
<text text-anchor="middle" x="1603" y="-832.02" font-family="Times,serif" font-size="14.00">c1 &amp; c2 &amp; ~c0</text>
</g>
<!-- 18 -->
<g id="node20" class="node">
<title>18</title>
<ellipse fill="none" stroke="black" cx="1692" cy="-835.72" rx="22.96" ry="22.96"/>
<ellipse fill="none" stroke="black" cx="1692" cy="-835.72" rx="27" ry="27"/>
<text text-anchor="middle" x="1692" y="-832.02" font-family="Times,serif" font-size="14.00">18</text>
</g>
<!-- 0&#45;&gt;18 -->
<g id="edge46" class="edge">
<title>0&#45;&gt;18</title>
<path fill="none" stroke="black" d="M1221.7,-930.66C1260.12,-923.88 1342.6,-909.13 1412,-895.47 1499.72,-878.2 1602.51,-856.17 1655.81,-844.62"/>
<polygon fill="black" stroke="black" points="1656.76,-847.99 1665.79,-842.45 1655.28,-841.15 1656.76,-847.99"/>
<text text-anchor="middle" x="1540" y="-884.27" font-family="Times,serif" font-size="14.00">c1 &amp; ~c0 &amp; ~c2</text>
</g>
<!-- 5 -->
<g id="node7" class="node">
<title>5</title>
<ellipse fill="none" stroke="black" cx="917" cy="-18" rx="27" ry="18"/>
<text text-anchor="middle" x="917" y="-14.3" font-family="Times,serif" font-size="14.00">5</text>
</g>
<!-- 1&#45;&gt;5 -->
<g id="edge93" class="edge">
<title>1&#45;&gt;5</title>
<path fill="none" stroke="black" d="M639.97,-734.1C525.11,-729.25 0,-703.45 0,-637.23 0,-637.23 0,-637.23 0,-112.75 0,-22.81 707.06,-18.54 879.44,-18.83"/>
<polygon fill="black" stroke="black" points="879.55,-22.33 889.56,-18.85 879.56,-15.33 879.55,-22.33"/>
<text text-anchor="middle" x="33.5" y="-371.29" font-family="Times,serif" font-size="14.00">c0 &amp; ~c1</text>
</g>
<!-- 11 -->
<g id="node13" class="node">
<title>11</title>
<ellipse fill="none" stroke="black" cx="785" cy="-531.73" rx="22.96" ry="22.96"/>
<ellipse fill="none" stroke="black" cx="785" cy="-531.73" rx="27" ry="27"/>
<text text-anchor="middle" x="785" y="-528.03" font-family="Times,serif" font-size="14.00">11</text>
</g>
<!-- 1&#45;&gt;11 -->
<g id="edge66" class="edge">
<title>1&#45;&gt;11</title>
<path fill="none" stroke="black" d="M682.52,-728.03C697.88,-721.86 718.33,-711.39 731,-695.98 761.45,-658.93 774.95,-604.1 780.78,-568.39"/>
<polygon fill="black" stroke="black" points="784.25,-568.82 782.29,-558.41 777.33,-567.77 784.25,-568.82"/>
<text text-anchor="middle" x="825" y="-632.53" font-family="Times,serif" font-size="14.00">c1 &amp; c2 &amp; ~c0</text>
</g>
<!-- 15 -->
<g id="node17" class="node">
<title>15</title>
<ellipse fill="none" stroke="black" cx="2069" cy="-218.24" rx="22.96" ry="22.96"/>
<ellipse fill="none" stroke="black" cx="2069" cy="-218.24" rx="27" ry="27"/>
<text text-anchor="middle" x="2069" y="-214.54" font-family="Times,serif" font-size="14.00">15</text>
</g>
<!-- 1&#45;&gt;15 -->
<g id="edge58" class="edge">
<title>1&#45;&gt;15</title>
<path fill="none" stroke="black" d="M684.14,-733.98C866.1,-725.81 2108.55,-669.76 2115,-662.98 2131.37,-645.74 2115.2,-633.25 2115,-609.48 2114.11,-501.92 2136.58,-471.97 2111,-367.49 2108.87,-358.8 2105.12,-357.87 2102,-349.49 2090.38,-318.22 2081.44,-281.24 2075.82,-254.69"/>
<polygon fill="black" stroke="black" points="2079.21,-253.79 2073.75,-244.7 2072.35,-255.2 2079.21,-253.79"/>
<text text-anchor="middle" x="2162.5" y="-475.78" font-family="Times,serif" font-size="14.00">~c0 &amp; ~c1</text>
</g>
<!-- 16 -->
<g id="node18" class="node">
<title>16</title>
<ellipse fill="none" stroke="black" cx="532" cy="-636.23" rx="22.96" ry="22.96"/>
<ellipse fill="none" stroke="black" cx="532" cy="-636.23" rx="27" ry="27"/>
<text text-anchor="middle" x="532" y="-632.53" font-family="Times,serif" font-size="14.00">16</text>
</g>
<!-- 1&#45;&gt;16 -->
<g id="edge67" class="edge">
<title>1&#45;&gt;16</title>
<path fill="none" stroke="black" d="M644.74,-722C623.51,-706.04 587.16,-678.7 561.48,-659.4"/>
<polygon fill="black" stroke="black" points="563.32,-656.4 553.22,-653.18 559.11,-661.99 563.32,-656.4"/>
<text text-anchor="middle" x="668" y="-684.78" font-family="Times,serif" font-size="14.00">c1 &amp; ~c0 &amp; ~c2</text>
</g>
<!-- 21 -->
<g id="node23" class="node">
<title>21</title>
<ellipse fill="none" stroke="black" cx="332" cy="-531.73" rx="27" ry="18"/>
<text text-anchor="middle" x="332" y="-528.03" font-family="Times,serif" font-size="14.00">21</text>
</g>
<!-- 1&#45;&gt;21 -->
<g id="edge29" class="edge">
<title>1&#45;&gt;21</title>
<path fill="none" stroke="black" d="M639.9,-734.51C591.54,-732.38 474.83,-721.14 402,-662.98 368.63,-636.32 349.06,-589.3 339.46,-559.64"/>
<polygon fill="black" stroke="black" points="342.76,-558.46 336.47,-549.94 336.07,-560.52 342.76,-558.46"/>
<text text-anchor="middle" x="449" y="-632.53" font-family="Times,serif" font-size="14.00">c0 &amp; c1 &amp; c2</text>
</g>
<!-- 25 -->
<g id="node27" class="node">
<title>25</title>
<ellipse fill="none" stroke="black" cx="321" cy="-322.74" rx="22.96" ry="22.96"/>
<ellipse fill="none" stroke="black" cx="321" cy="-322.74" rx="27" ry="27"/>
<text text-anchor="middle" x="321" y="-319.04" font-family="Times,serif" font-size="14.00">25</text>
</g>
<!-- 1&#45;&gt;25 -->
<g id="edge69" class="edge">
<title>1&#45;&gt;25</title>
<path fill="none" stroke="black" d="M640,-733.29C597.62,-729.62 502.03,-719.29 425,-695.98 283.07,-653.01 201.4,-683.08 121,-558.48 97.45,-521.98 144.86,-405.85 149,-400.49 182.28,-357.4 245.03,-337.89 284.84,-329.52"/>
<polygon fill="black" stroke="black" points="285.54,-332.95 294.68,-327.58 284.19,-326.08 285.54,-332.95"/>
<text text-anchor="middle" x="174" y="-528.03" font-family="Times,serif" font-size="14.00">c0 &amp; c1 &amp; ~c2</text>
</g>
<!-- 2&#45;&gt;2 -->
<g id="edge99" class="edge">
<title>2&#45;&gt;2</title>
<path fill="none" stroke="black" d="M1118.17,-845.13C1128.6,-846.58 1138,-843.44 1138,-835.72 1138,-830.66 1133.95,-827.57 1128.22,-826.45"/>
<polygon fill="black" stroke="black" points="1128.21,-822.95 1118.17,-826.32 1128.12,-829.95 1128.21,-822.95"/>
<text text-anchor="middle" x="1155" y="-832.02" font-family="Times,serif" font-size="14.00">True</text>
</g>
<!-- 3 -->
<g id="node5" class="node">
<title>3</title>
<ellipse fill="none" stroke="black" cx="1833" cy="-322.74" rx="18" ry="18"/>
<ellipse fill="none" stroke="black" cx="1833" cy="-322.74" rx="22" ry="22"/>
<text text-anchor="middle" x="1833" y="-319.04" font-family="Times,serif" font-size="14.00">3</text>
</g>
<!-- 3&#45;&gt;3 -->
<g id="edge74" class="edge">
<title>3&#45;&gt;3</title>
<path fill="none" stroke="black" d="M1853.17,-332.15C1863.6,-333.59 1873,-330.46 1873,-322.74 1873,-317.67 1868.95,-314.58 1863.22,-313.46"/>
<polygon fill="black" stroke="black" points="1863.21,-309.96 1853.17,-313.33 1863.12,-316.96 1863.21,-309.96"/>
<text text-anchor="middle" x="1912.5" y="-319.04" font-family="Times,serif" font-size="14.00">~c0 &amp; ~c1</text>
</g>
<!-- 3&#45;&gt;5 -->
<g id="edge53" class="edge">
<title>3&#45;&gt;5</title>
<path fill="none" stroke="black" d="M1826.73,-301.58C1809.33,-249.52 1755.03,-110.71 1655,-54 1593.83,-19.32 1095.95,-18.37 954.41,-18.81"/>
<polygon fill="black" stroke="black" points="954.07,-15.31 944.08,-18.85 954.1,-22.31 954.07,-15.31"/>
<text text-anchor="middle" x="1795.5" y="-162.3" font-family="Times,serif" font-size="14.00">c0 &amp; c1</text>
</g>
<!-- 3&#45;&gt;15 -->
<g id="edge64" class="edge">
<title>3&#45;&gt;15</title>
<path fill="none" stroke="black" d="M1849.49,-308.12C1866.13,-294.96 1893.01,-275.28 1919,-262.99 1956.13,-245.44 2001.8,-233.35 2032.93,-226.4"/>
<polygon fill="black" stroke="black" points="2033.86,-229.78 2042.89,-224.24 2032.38,-222.94 2033.86,-229.78"/>
<text text-anchor="middle" x="1952.5" y="-266.79" font-family="Times,serif" font-size="14.00">c1 &amp; ~c0</text>
</g>
<!-- 19 -->
<g id="node21" class="node">
<title>19</title>
<ellipse fill="none" stroke="black" cx="661" cy="-218.24" rx="27" ry="18"/>
<text text-anchor="middle" x="661" y="-214.54" font-family="Times,serif" font-size="14.00">19</text>
</g>
<!-- 3&#45;&gt;19 -->
<g id="edge35" class="edge">
<title>3&#45;&gt;19</title>
<path fill="none" stroke="black" d="M1813.72,-311.71C1801.54,-305.93 1785.27,-299.18 1770,-295.99 1605.94,-261.72 1182.62,-296.08 1016,-277.99 981.34,-274.23 973.47,-268.23 939,-262.99 866.51,-251.97 847.32,-257.09 775,-244.99 748.1,-240.49 718.02,-233.62 695.52,-228.11"/>
<polygon fill="black" stroke="black" points="696.3,-224.69 685.75,-225.68 694.61,-231.49 696.3,-224.69"/>
<text text-anchor="middle" x="1049.5" y="-266.79" font-family="Times,serif" font-size="14.00">c0 &amp; ~c1</text>
</g>
<!-- 4 -->
<g id="node6" class="node">
<title>4</title>
<ellipse fill="none" stroke="black" cx="950" cy="-218.24" rx="27" ry="18"/>
<text text-anchor="middle" x="950" y="-214.54" font-family="Times,serif" font-size="14.00">4</text>
</g>
<!-- 4&#45;&gt;4 -->
<g id="edge33" class="edge">
<title>4&#45;&gt;4</title>
<path fill="none" stroke="black" d="M973.15,-227.71C984.7,-229.02 995,-225.86 995,-218.24 995,-213.01 990.13,-209.88 983.34,-208.86"/>
<polygon fill="black" stroke="black" points="983.18,-205.36 973.15,-208.78 983.13,-212.36 983.18,-205.36"/>
<text text-anchor="middle" x="1022.5" y="-214.54" font-family="Times,serif" font-size="14.00">c1 &amp; c2</text>
</g>
<!-- 4&#45;&gt;5 -->
<g id="edge113" class="edge">
<title>4&#45;&gt;5</title>
<path fill="none" stroke="black" d="M943.52,-200.46C937.9,-185.1 930.03,-161.61 926,-140.5 919.89,-108.46 917.87,-70.94 917.24,-46.17"/>
<polygon fill="black" stroke="black" points="920.74,-45.99 917.04,-36.06 913.74,-46.13 920.74,-45.99"/>
<text text-anchor="middle" x="940.5" y="-110.05" font-family="Times,serif" font-size="14.00">~c1</text>
</g>
<!-- 12 -->
<g id="node14" class="node">
<title>12</title>
<ellipse fill="none" stroke="black" cx="991" cy="-113.75" rx="22.96" ry="22.96"/>
<ellipse fill="none" stroke="black" cx="991" cy="-113.75" rx="27" ry="27"/>
<text text-anchor="middle" x="991" y="-110.05" font-family="Times,serif" font-size="14.00">12</text>
</g>
<!-- 4&#45;&gt;12 -->
<g id="edge11" class="edge">
<title>4&#45;&gt;12</title>
<path fill="none" stroke="black" d="M947.18,-200.16C945.91,-188.09 945.72,-171.76 951,-158.5 953.83,-151.4 958.38,-144.74 963.42,-138.85"/>
<polygon fill="black" stroke="black" points="966.17,-141.03 970.47,-131.35 961.07,-136.24 966.17,-141.03"/>
<text text-anchor="middle" x="984.5" y="-162.3" font-family="Times,serif" font-size="14.00">c1 &amp; ~c2</text>
</g>
<!-- 5&#45;&gt;5 -->
<g id="edge42" class="edge">
<title>5&#45;&gt;5</title>
<path fill="none" stroke="black" d="M941.53,-25.75C952.51,-26.49 962,-23.91 962,-18 962,-14.03 957.72,-11.56 951.57,-10.59"/>
<polygon fill="black" stroke="black" points="951.65,-7.09 941.53,-10.25 951.41,-14.09 951.65,-7.09"/>
<text text-anchor="middle" x="979" y="-14.3" font-family="Times,serif" font-size="14.00">True</text>
</g>
<!-- 6&#45;&gt;3 -->
<g id="edge30" class="edge">
<title>6&#45;&gt;3</title>
<path fill="none" stroke="black" d="M1220.54,-525.84C1247.74,-519.88 1296.08,-509.96 1338,-504.98 1412.47,-496.14 1602.77,-507.17 1675,-486.98 1688.6,-483.18 1689.51,-476.15 1703,-471.98 1738.45,-461.02 1844.22,-481.6 1869,-453.98 1895.27,-424.71 1871.69,-377.92 1852.29,-349.11"/>
<polygon fill="black" stroke="black" points="1855.06,-346.97 1846.46,-340.78 1849.33,-350.98 1855.06,-346.97"/>
<text text-anchor="middle" x="1913.5" y="-423.54" font-family="Times,serif" font-size="14.00">c1 &amp; ~c0</text>
</g>
<!-- 6&#45;&gt;4 -->
<g id="edge65" class="edge">
<title>6&#45;&gt;4</title>
<path fill="none" stroke="black" d="M1178.19,-523.98C1154.34,-516.03 1114.27,-501.98 1081,-486.98 1068.13,-481.18 1066.18,-477.05 1053,-471.98 1021.81,-460 1000.61,-480.29 980,-453.98 965.34,-435.27 975.87,-423.9 980,-400.49 982.71,-385.12 985.05,-381.46 992,-367.49 1015.67,-319.94 1079.07,-307.45 1050,-262.99 1035.97,-241.54 1008.84,-230.54 986.38,-224.94"/>
<polygon fill="black" stroke="black" points="986.97,-221.49 976.45,-222.73 985.45,-228.32 986.97,-221.49"/>
<text text-anchor="middle" x="1045" y="-371.29" font-family="Times,serif" font-size="14.00">c0 &amp; c2 &amp; ~c1</text>
</g>
<!-- 9 -->
<g id="node11" class="node">
<title>9</title>
<ellipse fill="none" stroke="black" cx="1402" cy="-427.24" rx="18" ry="18"/>
<ellipse fill="none" stroke="black" cx="1402" cy="-427.24" rx="22" ry="22"/>
<text text-anchor="middle" x="1402" y="-423.54" font-family="Times,serif" font-size="14.00">9</text>
</g>
<!-- 6&#45;&gt;9 -->
<g id="edge23" class="edge">
<title>6&#45;&gt;9</title>
<path fill="none" stroke="black" d="M1218.46,-520.9C1254.46,-502.73 1331.58,-463.79 1373.48,-442.64"/>
<polygon fill="black" stroke="black" points="1375.25,-445.67 1382.59,-438.03 1372.09,-439.42 1375.25,-445.67"/>
<text text-anchor="middle" x="1371" y="-475.78" font-family="Times,serif" font-size="14.00">c2 &amp; ~c0 &amp; ~c1</text>
</g>
<!-- 6&#45;&gt;12 -->
<g id="edge41" class="edge">
<title>6&#45;&gt;12</title>
<path fill="none" stroke="black" d="M1180.24,-520.15C1156.88,-507.33 1115.49,-485.75 1078,-471.98 1047.84,-460.91 1027.68,-479.37 1008,-453.98 993.43,-435.19 992.93,-418.87 1008,-400.49 1033.86,-368.94 1072.14,-414.03 1098,-382.49 1102.23,-377.33 1099.93,-373.87 1098,-367.49 1095.21,-358.29 1088.79,-358.69 1086,-349.49 1061.39,-268.2 1138.61,-229.49 1092,-158.5 1077.81,-136.89 1050.41,-125.9 1027.73,-120.34"/>
<polygon fill="black" stroke="black" points="1028.22,-116.87 1017.7,-118.15 1026.73,-123.71 1028.22,-116.87"/>
<text text-anchor="middle" x="1145" y="-319.04" font-family="Times,serif" font-size="14.00">c0 &amp; ~c1 &amp; ~c2</text>
</g>
<!-- 6&#45;&gt;19 -->
<g id="edge86" class="edge">
<title>6&#45;&gt;19</title>
<path fill="none" stroke="black" d="M1176.99,-528.9C1126,-524.3 1001.61,-510.86 968,-486.98 888.14,-430.25 939.45,-350.41 858,-295.99 806.57,-261.63 775.52,-305.26 720,-277.99 703.5,-269.89 688.84,-255.34 678.26,-242.75"/>
<polygon fill="black" stroke="black" points="680.9,-240.46 671.91,-234.85 675.44,-244.84 680.9,-240.46"/>
<text text-anchor="middle" x="939.5" y="-371.29" font-family="Times,serif" font-size="14.00">c0 &amp; c1</text>
</g>
<!-- 23 -->
<g id="node25" class="node">
<title>23</title>
<ellipse fill="none" stroke="black" cx="1438" cy="-322.74" rx="22.96" ry="22.96"/>
<ellipse fill="none" stroke="black" cx="1438" cy="-322.74" rx="27" ry="27"/>
<text text-anchor="middle" x="1438" y="-319.04" font-family="Times,serif" font-size="14.00">23</text>
</g>
<!-- 6&#45;&gt;23 -->
<g id="edge75" class="edge">
<title>6&#45;&gt;23</title>
<path fill="none" stroke="black" d="M1194.65,-509.86C1190.14,-482.41 1186.42,-433.77 1208,-400.49 1224.98,-374.3 1240.92,-378.83 1270,-367.49 1273.14,-366.26 1353.83,-345.41 1402.22,-332.95"/>
<polygon fill="black" stroke="black" points="1403.21,-336.31 1412.02,-330.42 1401.46,-329.53 1403.21,-336.31"/>
<text text-anchor="middle" x="1273" y="-423.54" font-family="Times,serif" font-size="14.00">~c0 &amp; ~c1 &amp; ~c2</text>
</g>
<!-- 7&#45;&gt;9 -->
<g id="edge98" class="edge">
<title>7&#45;&gt;9</title>
<path fill="none" stroke="black" d="M1806.61,-727.5C1758.44,-709.21 1635.05,-658.77 1548,-591.48 1544.35,-588.66 1462.45,-496.43 1422.94,-451.88"/>
<polygon fill="black" stroke="black" points="1425.34,-449.3 1416.09,-444.14 1420.1,-453.95 1425.34,-449.3"/>
<text text-anchor="middle" x="1595" y="-580.28" font-family="Times,serif" font-size="14.00">c0 &amp; c1 &amp; c2</text>
</g>
<!-- 13 -->
<g id="node15" class="node">
<title>13</title>
<ellipse fill="none" stroke="black" cx="2285" cy="-427.24" rx="22.96" ry="22.96"/>
<ellipse fill="none" stroke="black" cx="2285" cy="-427.24" rx="27" ry="27"/>
<text text-anchor="middle" x="2285" y="-423.54" font-family="Times,serif" font-size="14.00">13</text>
</g>
<!-- 7&#45;&gt;13 -->
<g id="edge59" class="edge">
<title>7&#45;&gt;13</title>
<path fill="none" stroke="black" d="M1849.09,-734.39C1904.69,-732.06 2053.59,-720.5 2160,-662.98 2218.19,-631.52 2236.12,-617.5 2266,-558.48 2280.85,-529.14 2285.01,-491.64 2285.81,-464.41"/>
<polygon fill="black" stroke="black" points="2289.31,-464.21 2285.96,-454.16 2282.31,-464.1 2289.31,-464.21"/>
<text text-anchor="middle" x="2289.5" y="-580.28" font-family="Times,serif" font-size="14.00">c0 &amp; ~c1</text>
</g>
<!-- 17 -->
<g id="node19" class="node">
<title>17</title>
<ellipse fill="none" stroke="black" cx="1813" cy="-636.23" rx="22.96" ry="22.96"/>
<ellipse fill="none" stroke="black" cx="1813" cy="-636.23" rx="27" ry="27"/>
<text text-anchor="middle" x="1813" y="-632.53" font-family="Times,serif" font-size="14.00">17</text>
</g>
<!-- 7&#45;&gt;17 -->
<g id="edge25" class="edge">
<title>7&#45;&gt;17</title>
<path fill="none" stroke="black" d="M1823.96,-713.77C1822.26,-701.86 1820.09,-686.7 1818.13,-673.01"/>
<polygon fill="black" stroke="black" points="1821.56,-672.31 1816.68,-662.91 1814.63,-673.31 1821.56,-672.31"/>
<text text-anchor="middle" x="1874" y="-684.78" font-family="Times,serif" font-size="14.00">c1 &amp; c2 &amp; ~c0</text>
</g>
<!-- 20 -->
<g id="node22" class="node">
<title>20</title>
<ellipse fill="none" stroke="black" cx="2335" cy="-531.73" rx="22.96" ry="22.96"/>
<ellipse fill="none" stroke="black" cx="2335" cy="-531.73" rx="27" ry="27"/>
<text text-anchor="middle" x="2335" y="-528.03" font-family="Times,serif" font-size="14.00">20</text>
</g>
<!-- 7&#45;&gt;20 -->
<g id="edge84" class="edge">
<title>7&#45;&gt;20</title>
<path fill="none" stroke="black" d="M1849,-734.38C1936.47,-731.84 2256.66,-720.9 2294,-695.98 2337.48,-666.95 2335.65,-642.28 2348,-591.48 2349.98,-583.33 2349.44,-574.5 2347.76,-566.24"/>
<polygon fill="black" stroke="black" points="2351.14,-565.31 2345.25,-556.51 2344.36,-567.07 2351.14,-565.31"/>
<text text-anchor="middle" x="2382.5" y="-632.53" font-family="Times,serif" font-size="14.00">~c0 &amp; ~c1</text>
</g>
<!-- 22 -->
<g id="node24" class="node">
<title>22</title>
<ellipse fill="none" stroke="black" cx="1886" cy="-531.73" rx="22.96" ry="22.96"/>
<ellipse fill="none" stroke="black" cx="1886" cy="-531.73" rx="27" ry="27"/>
<text text-anchor="middle" x="1886" y="-528.03" font-family="Times,serif" font-size="14.00">22</text>
</g>
<!-- 7&#45;&gt;22 -->
<g id="edge27" class="edge">
<title>7&#45;&gt;22</title>
<path fill="none" stroke="black" d="M1848.16,-729.14C1869.78,-722.7 1903.94,-711.2 1931,-695.98 1951.69,-684.34 1959.44,-682.46 1973,-662.98 1992.07,-635.58 1990.83,-624.46 1996,-591.48 1997.03,-584.89 1999.74,-582 1996,-576.48 1979.77,-552.56 1948.18,-541.72 1923,-536.81"/>
<polygon fill="black" stroke="black" points="1923.46,-533.33 1913.02,-535.09 1922.28,-540.23 1923.46,-533.33"/>
<text text-anchor="middle" x="2052" y="-632.53" font-family="Times,serif" font-size="14.00">c1 &amp; ~c0 &amp; ~c2</text>
</g>
<!-- 7&#45;&gt;23 -->
<g id="edge73" class="edge">
<title>7&#45;&gt;23</title>
<path fill="none" stroke="black" d="M1804.95,-734.91C1726.92,-733.31 1463.02,-716.07 1361,-558.48 1337.93,-522.84 1335.25,-403.95 1357,-367.49 1366.92,-350.85 1385.61,-340.16 1402.53,-333.52"/>
<polygon fill="black" stroke="black" points="1403.98,-336.72 1412.22,-330.06 1401.62,-330.12 1403.98,-336.72"/>
<text text-anchor="middle" x="1414" y="-528.03" font-family="Times,serif" font-size="14.00">c0 &amp; c1 &amp; ~c2</text>
</g>
<!-- 8 -->
<g id="node10" class="node">
<title>8</title>
<ellipse fill="none" stroke="black" cx="388" cy="-427.24" rx="18" ry="18"/>
<ellipse fill="none" stroke="black" cx="388" cy="-427.24" rx="22" ry="22"/>
<text text-anchor="middle" x="388" y="-423.54" font-family="Times,serif" font-size="14.00">8</text>
</g>
<!-- 8&#45;&gt;5 -->
<g id="edge14" class="edge">
<title>8&#45;&gt;5</title>
<path fill="none" stroke="black" d="M373.5,-410.34C369.69,-406.77 365.4,-403.23 361,-400.49 341.3,-388.23 330.9,-395.94 312,-382.49 268.49,-351.52 266,-324.89 266,-271.49 266,-271.49 266,-271.49 266,-112.75 266,-50.29 741.55,-26.11 879.76,-20.41"/>
<polygon fill="black" stroke="black" points="880.01,-23.9 889.86,-20 879.72,-16.91 880.01,-23.9"/>
<text text-anchor="middle" x="274.5" y="-214.54" font-family="Times,serif" font-size="14.00">c1</text>
</g>
<!-- 8&#45;&gt;8 -->
<g id="edge8" class="edge">
<title>8&#45;&gt;8</title>
<path fill="none" stroke="black" d="M408.17,-436.64C418.6,-438.09 428,-434.95 428,-427.24 428,-422.17 423.95,-419.08 418.22,-417.96"/>
<polygon fill="black" stroke="black" points="418.21,-414.46 408.17,-417.83 418.12,-421.46 418.21,-414.46"/>
<text text-anchor="middle" x="493" y="-423.54" font-family="Times,serif" font-size="14.00">~c0 &amp; ~c1 &amp; ~c2</text>
</g>
<!-- 14 -->
<g id="node16" class="node">
<title>14</title>
<ellipse fill="none" stroke="black" cx="594" cy="-322.74" rx="22.96" ry="22.96"/>
<ellipse fill="none" stroke="black" cx="594" cy="-322.74" rx="27" ry="27"/>
<text text-anchor="middle" x="594" y="-319.04" font-family="Times,serif" font-size="14.00">14</text>
</g>
<!-- 8&#45;&gt;14 -->
<g id="edge114" class="edge">
<title>8&#45;&gt;14</title>
<path fill="none" stroke="black" d="M404.24,-412.23C422.13,-397.02 449.95,-374 462,-367.49 492.7,-350.9 530.81,-339.09 558.18,-331.96"/>
<polygon fill="black" stroke="black" points="559.26,-335.3 568.1,-329.46 557.55,-328.51 559.26,-335.3"/>
<text text-anchor="middle" x="521" y="-371.29" font-family="Times,serif" font-size="14.00">c2 &amp; ~c0 &amp; ~c1</text>
</g>
<!-- 8&#45;&gt;21 -->
<g id="edge10" class="edge">
<title>8&#45;&gt;21</title>
<path fill="none" stroke="black" d="M408.24,-436.07C431.83,-446.4 465.81,-465.77 451,-486.98 432.63,-513.31 396.56,-523.84 368.92,-528.03"/>
<polygon fill="black" stroke="black" points="368.27,-524.58 358.8,-529.34 369.17,-531.53 368.27,-524.58"/>
<text text-anchor="middle" x="508" y="-475.78" font-family="Times,serif" font-size="14.00">c0 &amp; c2 &amp; ~c1</text>
</g>
<!-- 8&#45;&gt;25 -->
<g id="edge79" class="edge">
<title>8&#45;&gt;25</title>
<path fill="none" stroke="black" d="M370.65,-413.32C364.81,-409.11 358.2,-404.49 352,-400.49 338.62,-391.84 328.95,-396.3 321,-382.49 316.99,-375.53 315.45,-367.29 315.24,-359.22"/>
<polygon fill="black" stroke="black" points="318.74,-359.31 315.59,-349.2 311.74,-359.07 318.74,-359.31"/>
<text text-anchor="middle" x="380" y="-371.29" font-family="Times,serif" font-size="14.00">c0 &amp; ~c1 &amp; ~c2</text>
</g>
<!-- 9&#45;&gt;4 -->
<g id="edge16" class="edge">
<title>9&#45;&gt;4</title>
<path fill="none" stroke="black" d="M1382.14,-417.09C1347.02,-400.74 1275.62,-366.6 1254,-349.49 1229.41,-330.03 1234.32,-313.04 1208,-295.99 1137.73,-250.47 1039.46,-231.07 986.79,-223.53"/>
<polygon fill="black" stroke="black" points="986.96,-220.02 976.58,-222.14 986.01,-226.96 986.96,-220.02"/>
<text text-anchor="middle" x="1301" y="-319.04" font-family="Times,serif" font-size="14.00">c0 &amp; c1 &amp; c2</text>
</g>
<!-- 9&#45;&gt;5 -->
<g id="edge96" class="edge">
<title>9&#45;&gt;5</title>
<path fill="none" stroke="black" d="M1423.87,-422.72C1474.22,-414.46 1595.12,-393.71 1610,-382.49 1633.57,-364.71 1641,-353.26 1641,-323.74 1641,-323.74 1641,-323.74 1641,-112.75 1641,-42.81 1102.77,-23.78 954.45,-19.87"/>
<polygon fill="black" stroke="black" points="954.15,-16.36 944.06,-19.6 953.97,-23.35 954.15,-16.36"/>
<text text-anchor="middle" x="1674.5" y="-214.54" font-family="Times,serif" font-size="14.00">c0 &amp; ~c1</text>
</g>
<!-- 9&#45;&gt;9 -->
<g id="edge62" class="edge">
<title>9&#45;&gt;9</title>
<path fill="none" stroke="black" d="M1422.17,-436.64C1432.6,-438.09 1442,-434.95 1442,-427.24 1442,-422.17 1437.95,-419.08 1432.22,-417.96"/>
<polygon fill="black" stroke="black" points="1432.21,-414.46 1422.17,-417.83 1432.12,-421.46 1432.21,-414.46"/>
<text text-anchor="middle" x="1495" y="-423.54" font-family="Times,serif" font-size="14.00">c1 &amp; c2 &amp; ~c0</text>
</g>
<!-- 9&#45;&gt;12 -->
<g id="edge55" class="edge">
<title>9&#45;&gt;12</title>
<path fill="none" stroke="black" d="M1384.06,-413.77C1374.34,-405.97 1363.09,-395.04 1357,-382.49 1340.13,-347.71 1374.29,-324.32 1348,-295.99 1317.28,-262.89 1287.68,-299.56 1248,-277.99 1184.05,-243.23 1197.85,-196.88 1136,-158.5 1102.38,-137.63 1058.18,-126.18 1027.46,-120.28"/>
<polygon fill="black" stroke="black" points="1028.05,-116.84 1017.59,-118.49 1026.8,-123.72 1028.05,-116.84"/>
<text text-anchor="middle" x="1301" y="-266.79" font-family="Times,serif" font-size="14.00">c0 &amp; c1 &amp; ~c2</text>
</g>
<!-- 9&#45;&gt;15 -->
<g id="edge88" class="edge">
<title>9&#45;&gt;15</title>
<path fill="none" stroke="black" d="M1423.6,-422.87C1482.49,-413.66 1642.08,-388.28 1652,-382.49 1694.95,-357.42 1680.62,-322.03 1723,-295.99 1822.78,-234.7 1965.43,-222.12 2032.06,-219.7"/>
<polygon fill="black" stroke="black" points="2032.2,-223.2 2042.09,-219.4 2031.98,-216.2 2032.2,-223.2"/>
<text text-anchor="middle" x="1762.5" y="-319.04" font-family="Times,serif" font-size="14.00">~c0 &amp; ~c1</text>
</g>
<!-- 9&#45;&gt;23 -->
<g id="edge91" class="edge">
<title>9&#45;&gt;23</title>
<path fill="none" stroke="black" d="M1384.57,-413.65C1370.57,-401.93 1354.67,-383.84 1364,-367.49 1372.49,-352.6 1388.26,-342.27 1403.06,-335.4"/>
<polygon fill="black" stroke="black" points="1404.72,-338.49 1412.57,-331.37 1401.99,-332.05 1404.72,-338.49"/>
<text text-anchor="middle" x="1423" y="-371.29" font-family="Times,serif" font-size="14.00">c1 &amp; ~c0 &amp; ~c2</text>
</g>
<!-- 10 -->
<g id="node12" class="node">
<title>10</title>
<ellipse fill="none" stroke="black" cx="571" cy="-113.75" rx="22.96" ry="22.96"/>
<ellipse fill="none" stroke="black" cx="571" cy="-113.75" rx="27" ry="27"/>
<text text-anchor="middle" x="571" y="-110.05" font-family="Times,serif" font-size="14.00">10</text>
</g>
<!-- 10&#45;&gt;5 -->
<g id="edge77" class="edge">
<title>10&#45;&gt;5</title>
<path fill="none" stroke="black" d="M595.14,-102.12C625.42,-89.14 679.18,-67.29 727,-54 779.43,-39.42 841.72,-29.27 880.31,-23.78"/>
<polygon fill="black" stroke="black" points="881.12,-27.2 890.54,-22.36 880.15,-20.27 881.12,-27.2"/>
<text text-anchor="middle" x="735.5" y="-57.8" font-family="Times,serif" font-size="14.00">c1</text>
</g>
<!-- 10&#45;&gt;10 -->
<g id="edge89" class="edge">
<title>10&#45;&gt;10</title>
<path fill="none" stroke="black" d="M596.3,-123.41C606.83,-124.08 615.75,-120.86 615.75,-113.75 615.75,-109.08 611.91,-106.09 606.29,-104.77"/>
<polygon fill="black" stroke="black" points="606.52,-101.28 596.3,-104.08 606.04,-108.27 606.52,-101.28"/>
<text text-anchor="middle" x="655.25" y="-110.05" font-family="Times,serif" font-size="14.00">~c0 &amp; ~c1</text>
</g>
<!-- 10&#45;&gt;19 -->
<g id="edge21" class="edge">
<title>10&#45;&gt;19</title>
<path fill="none" stroke="black" d="M595.22,-125.45C609.65,-132.89 627.37,-144.07 639,-158.5 646.46,-167.75 651.56,-179.79 654.95,-190.56"/>
<polygon fill="black" stroke="black" points="651.63,-191.68 657.71,-200.36 658.37,-189.78 651.63,-191.68"/>
<text text-anchor="middle" x="682.5" y="-162.3" font-family="Times,serif" font-size="14.00">c0 &amp; ~c1</text>
</g>
<!-- 11&#45;&gt;3 -->
<g id="edge38" class="edge">
<title>11&#45;&gt;3</title>
<path fill="none" stroke="black" d="M811.76,-527.63C873.15,-520.51 1028.84,-502.41 1159,-486.98 1214.57,-480.4 1228.29,-477.16 1284,-471.98 1344.54,-466.36 1499.12,-472.6 1557,-453.98 1599.85,-440.2 1602.08,-419.25 1643,-400.49 1712,-368.85 1740.6,-388.02 1806,-349.49 1807.53,-348.58 1809.05,-347.58 1810.54,-346.5"/>
<polygon fill="black" stroke="black" points="1813.15,-348.88 1818.59,-339.79 1808.67,-343.5 1813.15,-348.88"/>
<text text-anchor="middle" x="1682.5" y="-423.54" font-family="Times,serif" font-size="14.00">~c0 &amp; ~c1</text>
</g>
<!-- 11&#45;&gt;4 -->
<g id="edge109" class="edge">
<title>11&#45;&gt;4</title>
<path fill="none" stroke="black" d="M783.45,-504.75C781.58,-464.09 780.5,-387.95 797,-367.49 814.74,-345.48 833.44,-363.48 858,-349.49 898.58,-326.38 911.14,-318.14 935,-277.99 940.69,-268.42 944.24,-256.73 946.44,-246.31"/>
<polygon fill="black" stroke="black" points="949.89,-246.9 948.23,-236.43 943,-245.65 949.89,-246.9"/>
<text text-anchor="middle" x="844" y="-371.29" font-family="Times,serif" font-size="14.00">c0 &amp; c1 &amp; c2</text>
</g>
<!-- 11&#45;&gt;9 -->
<g id="edge9" class="edge">
<title>11&#45;&gt;9</title>
<path fill="none" stroke="black" d="M810.64,-523.76C858.07,-511.16 962.92,-484.73 1053,-471.98 1174.28,-454.82 1207.96,-478.33 1328,-453.98 1342.98,-450.95 1359.06,-445.61 1372.4,-440.59"/>
<polygon fill="black" stroke="black" points="1373.95,-443.74 1382,-436.85 1371.41,-437.22 1373.95,-443.74"/>
<text text-anchor="middle" x="1106" y="-475.78" font-family="Times,serif" font-size="14.00">c1 &amp; c2 &amp; ~c0</text>
</g>
<!-- 11&#45;&gt;12 -->
<g id="edge87" class="edge">
<title>11&#45;&gt;12</title>
<path fill="none" stroke="black" d="M778.24,-505.67C764.63,-453.53 736.19,-334.98 748,-295.99 753.11,-279.12 755.2,-272.56 770,-262.99 810.86,-236.57 837.08,-271.33 878,-244.99 902.1,-229.48 896.31,-214.05 914,-191.5 926.23,-175.9 930.07,-172.59 944,-158.5 950.31,-152.11 957.3,-145.42 963.91,-139.24"/>
<polygon fill="black" stroke="black" points="966.48,-141.63 971.45,-132.27 961.73,-136.49 966.48,-141.63"/>
<text text-anchor="middle" x="801" y="-319.04" font-family="Times,serif" font-size="14.00">c0 &amp; c1 &amp; ~c2</text>
</g>
<!-- 11&#45;&gt;19 -->
<g id="edge26" class="edge">
<title>11&#45;&gt;19</title>
<path fill="none" stroke="black" d="M768.41,-510.37C762.89,-503.18 756.9,-494.91 752,-486.98 729.42,-450.47 737.37,-432.7 709,-400.49 699.47,-389.66 689.59,-394.75 682,-382.49 653.85,-336.96 673.97,-316.06 667,-262.99 666.29,-257.62 665.52,-251.88 664.77,-246.38"/>
<polygon fill="black" stroke="black" points="668.21,-245.7 663.38,-236.27 661.28,-246.66 668.21,-245.7"/>
<text text-anchor="middle" x="715.5" y="-371.29" font-family="Times,serif" font-size="14.00">c0 &amp; ~c1</text>
</g>
<!-- 11&#45;&gt;23 -->
<g id="edge37" class="edge">
<title>11&#45;&gt;23</title>
<path fill="none" stroke="black" d="M808.23,-517.97C855.82,-492.3 968.4,-434.04 1069,-400.49 1134.58,-378.62 1152.93,-379.54 1221,-367.49 1278.87,-357.25 1294.57,-361.95 1352,-349.49 1368.99,-345.8 1387.51,-340.44 1402.99,-335.56"/>
<polygon fill="black" stroke="black" points="1404.23,-338.84 1412.68,-332.45 1402.09,-332.17 1404.23,-338.84"/>
<text text-anchor="middle" x="1128" y="-423.54" font-family="Times,serif" font-size="14.00">c1 &amp; ~c0 &amp; ~c2</text>
</g>
<!-- 12&#45;&gt;4 -->
<g id="edge104" class="edge">
<title>12&#45;&gt;4</title>
<path fill="none" stroke="black" d="M1009.06,-133.86C1017.81,-145.51 1025.04,-160.59 1018,-173.5 1010.35,-187.51 996.07,-197.71 982.57,-204.72"/>
<polygon fill="black" stroke="black" points="980.96,-201.61 973.43,-209.06 983.97,-207.93 980.96,-201.61"/>
<text text-anchor="middle" x="1054.5" y="-162.3" font-family="Times,serif" font-size="14.00">c2 &amp; ~c1</text>
</g>
<!-- 12&#45;&gt;5 -->
<g id="edge68" class="edge">
<title>12&#45;&gt;5</title>
<path fill="none" stroke="black" d="M974.58,-91.94C962.94,-77.2 947.31,-57.4 935.28,-42.15"/>
<polygon fill="black" stroke="black" points="937.95,-39.89 929.01,-34.21 932.46,-44.23 937.95,-39.89"/>
<text text-anchor="middle" x="965.5" y="-57.8" font-family="Times,serif" font-size="14.00">c1</text>
</g>
<!-- 12&#45;&gt;12 -->
<g id="edge50" class="edge">
<title>12&#45;&gt;12</title>
<path fill="none" stroke="black" d="M1016.3,-123.41C1026.83,-124.08 1035.75,-120.86 1035.75,-113.75 1035.75,-109.08 1031.91,-106.09 1026.29,-104.77"/>
<polygon fill="black" stroke="black" points="1026.52,-101.28 1016.3,-104.08 1026.04,-108.27 1026.52,-101.28"/>
<text text-anchor="middle" x="1075.25" y="-110.05" font-family="Times,serif" font-size="14.00">~c1 &amp; ~c2</text>
</g>
<!-- 13&#45;&gt;3 -->
<g id="edge60" class="edge">
<title>13&#45;&gt;3</title>
<path fill="none" stroke="black" d="M2263.87,-410.19C2257.76,-406.34 2250.88,-402.71 2244,-400.49 2124.48,-361.91 2083.82,-413.02 1962,-382.49 1925.17,-373.26 1885.88,-353.81 1860.47,-339.82"/>
<polygon fill="black" stroke="black" points="1861.88,-336.6 1851.44,-334.76 1858.45,-342.7 1861.88,-336.6"/>
<text text-anchor="middle" x="1995.5" y="-371.29" font-family="Times,serif" font-size="14.00">c1 &amp; ~c0</text>
</g>
<!-- 13&#45;&gt;5 -->
<g id="edge17" class="edge">
<title>13&#45;&gt;5</title>
<path fill="none" stroke="black" d="M2308.72,-414.48C2348.18,-394.14 2423,-351.87 2423,-323.74 2423,-323.74 2423,-323.74 2423,-112.75 2423,-36.8 1186.74,-21.52 954.4,-19.32"/>
<polygon fill="black" stroke="black" points="954.13,-15.81 944.1,-19.22 954.07,-22.81 954.13,-15.81"/>
<text text-anchor="middle" x="2456.5" y="-214.54" font-family="Times,serif" font-size="14.00">c0 &amp; ~c1</text>
</g>
<!-- 13&#45;&gt;15 -->
<g id="edge49" class="edge">
<title>13&#45;&gt;15</title>
<path fill="none" stroke="black" d="M2283.79,-400.48C2280.69,-364.53 2269.71,-299.61 2231,-262.99 2197.19,-231.02 2142.5,-221.91 2106.15,-219.59"/>
<polygon fill="black" stroke="black" points="2106.12,-216.08 2095.96,-219.08 2105.78,-223.07 2106.12,-216.08"/>
<text text-anchor="middle" x="2314.5" y="-319.04" font-family="Times,serif" font-size="14.00">~c0 &amp; ~c1</text>
</g>
<!-- 13&#45;&gt;19 -->
<g id="edge39" class="edge">
<title>13&#45;&gt;19</title>
<path fill="none" stroke="black" d="M2263.35,-411.47C2257.24,-407.63 2250.49,-403.68 2244,-400.49 2123.69,-341.3 2092.69,-321.2 1961,-295.99 1801.19,-265.4 1391.39,-288.31 1229,-277.99 1163.9,-273.85 1148.02,-268.18 1083,-262.99 942.33,-251.78 905.56,-265.88 766,-244.99 742.02,-241.4 715.51,-234.88 695.12,-229.3"/>
<polygon fill="black" stroke="black" points="695.93,-225.89 685.36,-226.57 694.04,-232.63 695.93,-225.89"/>
<text text-anchor="middle" x="2165.5" y="-319.04" font-family="Times,serif" font-size="14.00">c0 &amp; c1</text>
</g>
<!-- 14&#45;&gt;4 -->
<g id="edge103" class="edge">
<title>14&#45;&gt;4</title>
<path fill="none" stroke="black" d="M620.22,-316.18C646.8,-310.64 689.15,-302.11 726,-295.99 783.97,-286.36 801.94,-298.54 857,-277.99 868.43,-273.72 869.71,-269.56 880,-262.99 893.8,-254.18 909.23,-244.52 922.08,-236.52"/>
<polygon fill="black" stroke="black" points="924.28,-239.28 930.92,-231.03 920.58,-233.33 924.28,-239.28"/>
<text text-anchor="middle" x="907.5" y="-266.79" font-family="Times,serif" font-size="14.00">c1 &amp; c2</text>
</g>
<!-- 14&#45;&gt;10 -->
<g id="edge28" class="edge">
<title>14&#45;&gt;10</title>
<path fill="none" stroke="black" d="M567.55,-318.58C529.29,-312.36 460.41,-294.5 436,-244.99 425.48,-223.67 424.04,-212.05 436,-191.5 457.26,-154.96 503.11,-134.39 535.46,-123.93"/>
<polygon fill="black" stroke="black" points="536.49,-127.28 545.03,-121.01 534.44,-120.59 536.49,-127.28"/>
<text text-anchor="middle" x="475.5" y="-214.54" font-family="Times,serif" font-size="14.00">~c0 &amp; ~c1</text>
</g>
<!-- 14&#45;&gt;12 -->
<g id="edge51" class="edge">
<title>14&#45;&gt;12</title>
<path fill="none" stroke="black" d="M619.74,-314.98C656.06,-304.51 723.14,-281.66 770,-244.99 793.59,-226.53 787.84,-210.5 811,-191.5 836.66,-170.44 846.69,-169.51 878,-158.5 912.79,-146.26 925.76,-156.47 959,-140.5 960.37,-139.84 961.73,-139.11 963.07,-138.34"/>
<polygon fill="black" stroke="black" points="965.27,-141.08 971.64,-132.61 961.38,-135.25 965.27,-141.08"/>
<text text-anchor="middle" x="844.5" y="-214.54" font-family="Times,serif" font-size="14.00">c1 &amp; ~c2</text>
</g>
<!-- 14&#45;&gt;19 -->
<g id="edge72" class="edge">
<title>14&#45;&gt;19</title>
<path fill="none" stroke="black" d="M592.1,-296.03C592.41,-285.19 594.29,-272.84 600,-262.99 602.17,-259.25 618.53,-247.6 633.76,-237.26"/>
<polygon fill="black" stroke="black" points="636.14,-239.88 642.48,-231.4 632.23,-234.07 636.14,-239.88"/>
<text text-anchor="middle" x="633.5" y="-266.79" font-family="Times,serif" font-size="14.00">c0 &amp; ~c1</text>
</g>
<!-- 15&#45;&gt;5 -->
<g id="edge43" class="edge">
<title>15&#45;&gt;5</title>
<path fill="none" stroke="black" d="M2049.8,-199.36C2010.16,-163.75 1914.85,-84.78 1818,-54 1734.96,-27.61 1114.91,-20.65 954.69,-19.28"/>
<polygon fill="black" stroke="black" points="954.42,-15.78 944.39,-19.2 954.36,-22.78 954.42,-15.78"/>
<text text-anchor="middle" x="1982.5" y="-110.05" font-family="Times,serif" font-size="14.00">c0</text>
</g>
<!-- 15&#45;&gt;15 -->
<g id="edge57" class="edge">
<title>15&#45;&gt;15</title>
<path fill="none" stroke="black" d="M2094.3,-227.91C2104.83,-228.57 2113.75,-225.35 2113.75,-218.24 2113.75,-213.58 2109.91,-210.59 2104.29,-209.27"/>
<polygon fill="black" stroke="black" points="2104.52,-205.78 2094.3,-208.58 2104.04,-212.76 2104.52,-205.78"/>
<text text-anchor="middle" x="2128.25" y="-214.54" font-family="Times,serif" font-size="14.00">~c0</text>
</g>
<!-- 16&#45;&gt;5 -->
<g id="edge81" class="edge">
<title>16&#45;&gt;5</title>
<path fill="none" stroke="black" d="M512.82,-616.98C508.83,-614.03 504.48,-611.34 500,-609.48 387.64,-562.75 324.55,-636.3 231,-558.48 210.37,-541.32 223.34,-522.5 203,-504.98 184.47,-489.03 170.11,-502.25 151,-486.98 105.61,-450.73 82,-434.07 82,-375.99 82,-375.99 82,-375.99 82,-112.75 82,-31.38 716.3,-20.63 879.22,-19.22"/>
<polygon fill="black" stroke="black" points="879.72,-22.71 889.69,-19.13 879.67,-15.71 879.72,-22.71"/>
<text text-anchor="middle" x="109.5" y="-319.04" font-family="Times,serif" font-size="14.00">c0 &amp; c1</text>
</g>
<!-- 16&#45;&gt;11 -->
<g id="edge102" class="edge">
<title>16&#45;&gt;11</title>
<path fill="none" stroke="black" d="M553.97,-620.85C574.51,-607.89 606.39,-588.99 636,-576.48 673.48,-560.64 718.56,-548.27 749.25,-540.78"/>
<polygon fill="black" stroke="black" points="750.16,-544.16 759.07,-538.44 748.53,-537.36 750.16,-544.16"/>
<text text-anchor="middle" x="695" y="-580.28" font-family="Times,serif" font-size="14.00">c2 &amp; ~c0 &amp; ~c1</text>
</g>
<!-- 16&#45;&gt;15 -->
<g id="edge94" class="edge">
<title>16&#45;&gt;15</title>
<path fill="none" stroke="black" d="M558.45,-631.54C599.42,-625.97 680.7,-615.41 750,-609.48 856.43,-600.38 1606.02,-582.95 1710,-558.48 1738.41,-551.79 1929.79,-474.03 1951,-453.98 1967.01,-438.86 2026.04,-312.91 2054.06,-251.99"/>
<polygon fill="black" stroke="black" points="2057.29,-253.35 2058.28,-242.8 2050.92,-250.43 2057.29,-253.35"/>
<text text-anchor="middle" x="2015.5" y="-423.54" font-family="Times,serif" font-size="14.00">c1 &amp; ~c0</text>
</g>
<!-- 16&#45;&gt;16 -->
<g id="edge61" class="edge">
<title>16&#45;&gt;16</title>
<path fill="none" stroke="black" d="M557.3,-645.89C567.83,-646.56 576.75,-643.34 576.75,-636.23 576.75,-631.56 572.91,-628.57 567.29,-627.25"/>
<polygon fill="black" stroke="black" points="567.52,-623.76 557.3,-626.56 567.04,-630.75 567.52,-623.76"/>
<text text-anchor="middle" x="641.75" y="-632.53" font-family="Times,serif" font-size="14.00">~c0 &amp; ~c1 &amp; ~c2</text>
</g>
<!-- 16&#45;&gt;21 -->
<g id="edge90" class="edge">
<title>16&#45;&gt;21</title>
<path fill="none" stroke="black" d="M508.27,-623.07C471.68,-604.31 401.54,-568.37 361.65,-547.93"/>
<polygon fill="black" stroke="black" points="363.17,-544.77 352.68,-543.33 359.98,-551 363.17,-544.77"/>
<text text-anchor="middle" x="497" y="-580.28" font-family="Times,serif" font-size="14.00">c0 &amp; c2 &amp; ~c1</text>
</g>
<!-- 16&#45;&gt;25 -->
<g id="edge44" class="edge">
<title>16&#45;&gt;25</title>
<path fill="none" stroke="black" d="M512.65,-617.35C508.68,-614.37 504.38,-611.57 500,-609.48 465.94,-593.21 453.67,-600.45 417,-591.48 362.85,-578.23 345.51,-584.09 296,-558.48 262.77,-541.29 264.3,-522.05 231,-504.98 203.18,-490.72 182.07,-511.76 163,-486.98 116.97,-427.18 228.02,-365.57 287.05,-338.27"/>
<polygon fill="black" stroke="black" points="288.73,-341.36 296.39,-334.04 285.84,-334.98 288.73,-341.36"/>
<text text-anchor="middle" x="222" y="-475.78" font-family="Times,serif" font-size="14.00">c0 &amp; ~c1 &amp; ~c2</text>
</g>
<!-- 17&#45;&gt;9 -->
<g id="edge63" class="edge">
<title>17&#45;&gt;9</title>
<path fill="none" stroke="black" d="M1787.07,-628.87C1747.27,-618.36 1669.67,-594.83 1612,-558.48 1564.79,-528.73 1568.39,-501.44 1521,-471.98 1493.4,-454.83 1458.05,-442.91 1433.07,-435.89"/>
<polygon fill="black" stroke="black" points="1433.95,-432.5 1423.38,-433.27 1432.12,-439.26 1433.95,-432.5"/>
<text text-anchor="middle" x="1659" y="-528.03" font-family="Times,serif" font-size="14.00">c0 &amp; c1 &amp; c2</text>
</g>
<!-- 17&#45;&gt;15 -->
<g id="edge36" class="edge">
<title>17&#45;&gt;15</title>
<path fill="none" stroke="black" d="M1839.36,-630.64C1898.08,-619.91 2037.08,-591.58 2070,-558.48 2099.61,-528.71 2087.1,-508.4 2108,-471.98 2141.5,-413.62 2176.2,-413.49 2197,-349.49 2204.35,-326.88 2208.72,-316.68 2197,-295.99 2177.3,-261.2 2134.84,-240.47 2104.22,-229.49"/>
<polygon fill="black" stroke="black" points="2105.34,-226.17 2094.74,-226.26 2103.08,-232.79 2105.34,-226.17"/>
<text text-anchor="middle" x="2201.5" y="-423.54" font-family="Times,serif" font-size="14.00">c0 &amp; ~c1</text>
</g>
<!-- 17&#45;&gt;17 -->
<g id="edge24" class="edge">
<title>17&#45;&gt;17</title>
<path fill="none" stroke="black" d="M1838.3,-645.89C1848.83,-646.56 1857.75,-643.34 1857.75,-636.23 1857.75,-631.56 1853.91,-628.57 1848.29,-627.25"/>
<polygon fill="black" stroke="black" points="1848.52,-623.76 1838.3,-626.56 1848.04,-630.75 1848.52,-623.76"/>
<text text-anchor="middle" x="1910.75" y="-632.53" font-family="Times,serif" font-size="14.00">c1 &amp; c2 &amp; ~c0</text>
</g>
<!-- 17&#45;&gt;22 -->
<g id="edge56" class="edge">
<title>17&#45;&gt;22</title>
<path fill="none" stroke="black" d="M1787.82,-626.15C1762.46,-615.59 1729.17,-596.97 1745,-576.48 1764.38,-551.4 1783.72,-567.82 1814,-558.48 1826.39,-554.66 1839.8,-550 1851.66,-545.71"/>
<polygon fill="black" stroke="black" points="1853.01,-548.94 1861.19,-542.21 1850.6,-542.37 1853.01,-548.94"/>
<text text-anchor="middle" x="1804" y="-580.28" font-family="Times,serif" font-size="14.00">c1 &amp; ~c0 &amp; ~c2</text>
</g>
<!-- 17&#45;&gt;23 -->
<g id="edge45" class="edge">
<title>17&#45;&gt;23</title>
<path fill="none" stroke="black" d="M1787.8,-626.64C1770.88,-619.65 1749.33,-608.19 1736,-591.48 1680.6,-522.03 1735.06,-467.74 1677,-400.49 1625.74,-341.11 1528.4,-327.29 1475.13,-324.32"/>
<polygon fill="black" stroke="black" points="1475.24,-320.82 1465.09,-323.86 1474.92,-327.81 1475.24,-320.82"/>
<text text-anchor="middle" x="1760" y="-475.78" font-family="Times,serif" font-size="14.00">c0 &amp; c1 &amp; ~c2</text>
</g>
<!-- 24 -->
<g id="node26" class="node">
<title>24</title>
<ellipse fill="none" stroke="black" cx="2378" cy="-427.24" rx="22.96" ry="22.96"/>
<ellipse fill="none" stroke="black" cx="2378" cy="-427.24" rx="27" ry="27"/>
<text text-anchor="middle" x="2378" y="-423.54" font-family="Times,serif" font-size="14.00">24</text>
</g>
<!-- 17&#45;&gt;24 -->
<g id="edge105" class="edge">
<title>17&#45;&gt;24</title>
<path fill="none" stroke="black" d="M1839.18,-630.66C1870.15,-625.31 1923.26,-616.33 1969,-609.48 2028.43,-600.59 2047.31,-614.05 2103,-591.48 2162.93,-567.19 2160.06,-529.24 2220,-504.98 2276.11,-482.27 2307.37,-524.34 2355,-486.98 2362.53,-481.08 2367.6,-472.36 2371.01,-463.43"/>
<polygon fill="black" stroke="black" points="2374.38,-464.38 2374.1,-453.79 2367.72,-462.25 2374.38,-464.38"/>
<text text-anchor="middle" x="2259.5" y="-528.03" font-family="Times,serif" font-size="14.00">~c0 &amp; ~c1</text>
</g>
<!-- 18&#45;&gt;1 -->
<g id="edge112" class="edge">
<title>18&#45;&gt;1</title>
<path fill="none" stroke="black" d="M1665.57,-830.39C1629.89,-824.7 1564.32,-814.73 1508,-808.98 1384.83,-796.39 1353.42,-800.84 1230,-790.98 1025.5,-774.64 780.12,-749.39 693.86,-740.34"/>
<polygon fill="black" stroke="black" points="694.22,-736.86 683.91,-739.3 693.49,-743.82 694.22,-736.86"/>
<text text-anchor="middle" x="1283" y="-779.78" font-family="Times,serif" font-size="14.00">c0 &amp; c2 &amp; ~c1</text>
</g>
<!-- 18&#45;&gt;6 -->
<g id="edge71" class="edge">
<title>18&#45;&gt;6</title>
<path fill="none" stroke="black" d="M1672.41,-817.32C1668.46,-814.29 1664.22,-811.36 1660,-808.98 1532.67,-737.07 1472.85,-776.82 1351,-695.98 1293.74,-657.98 1242.82,-594.22 1216.97,-558.67"/>
<polygon fill="black" stroke="black" points="1219.62,-556.36 1210.95,-550.27 1213.93,-560.44 1219.62,-556.36"/>
<text text-anchor="middle" x="1410" y="-684.78" font-family="Times,serif" font-size="14.00">c0 &amp; ~c1 &amp; ~c2</text>
</g>
<!-- 18&#45;&gt;7 -->
<g id="edge31" class="edge">
<title>18&#45;&gt;7</title>
<path fill="none" stroke="black" d="M1713.39,-819.24C1737.2,-802 1775.67,-774.14 1801.15,-755.69"/>
<polygon fill="black" stroke="black" points="1803.53,-758.29 1809.57,-749.59 1799.42,-752.62 1803.53,-758.29"/>
<text text-anchor="middle" x="1830" y="-779.78" font-family="Times,serif" font-size="14.00">c2 &amp; ~c0 &amp; ~c1</text>
</g>
<!-- 18&#45;&gt;15 -->
<g id="edge52" class="edge">
<title>18&#45;&gt;15</title>
<path fill="none" stroke="black" d="M1719.12,-834.66C1868.28,-833.98 2582,-826.06 2582,-736.98 2582,-736.98 2582,-736.98 2582,-321.74 2582,-273.14 2223.39,-234.16 2105.83,-222.69"/>
<polygon fill="black" stroke="black" points="2106.15,-219.2 2095.86,-221.72 2105.48,-226.17 2106.15,-219.2"/>
<text text-anchor="middle" x="2609.5" y="-528.03" font-family="Times,serif" font-size="14.00">c0 &amp; c1</text>
</g>
<!-- 18&#45;&gt;18 -->
<g id="edge111" class="edge">
<title>18&#45;&gt;18</title>
<path fill="none" stroke="black" d="M1717.3,-845.39C1727.83,-846.05 1736.75,-842.83 1736.75,-835.72 1736.75,-831.06 1732.91,-828.07 1727.29,-826.75"/>
<polygon fill="black" stroke="black" points="1727.52,-823.26 1717.3,-826.06 1727.04,-830.24 1727.52,-823.26"/>
<text text-anchor="middle" x="1801.75" y="-832.02" font-family="Times,serif" font-size="14.00">~c0 &amp; ~c1 &amp; ~c2</text>
</g>
<!-- 18&#45;&gt;24 -->
<g id="edge12" class="edge">
<title>18&#45;&gt;24</title>
<path fill="none" stroke="black" d="M1718.91,-834.31C1857.78,-831.82 2487,-816.15 2487,-736.98 2487,-736.98 2487,-736.98 2487,-530.73 2487,-488.77 2443.59,-458.95 2411.56,-442.66"/>
<polygon fill="black" stroke="black" points="2412.99,-439.46 2402.46,-438.23 2409.92,-445.75 2412.99,-439.46"/>
<text text-anchor="middle" x="2520.5" y="-632.53" font-family="Times,serif" font-size="14.00">c1 &amp; ~c0</text>
</g>
<!-- 19&#45;&gt;5 -->
<g id="edge22" class="edge">
<title>19&#45;&gt;5</title>
<path fill="none" stroke="black" d="M678.65,-204.35C690.42,-195.7 706.21,-184.01 720,-173.5 782.39,-125.91 854.75,-68.61 892,-38.96"/>
<polygon fill="black" stroke="black" points="894.61,-41.35 900.25,-32.38 890.25,-35.88 894.61,-41.35"/>
<text text-anchor="middle" x="845.5" y="-110.05" font-family="Times,serif" font-size="14.00">~c1</text>
</g>
<!-- 19&#45;&gt;10 -->
<g id="edge19" class="edge">
<title>19&#45;&gt;10</title>
<path fill="none" stroke="black" d="M642.68,-204.63C635.75,-200.16 627.68,-195.3 620,-191.5 599.58,-181.39 585.14,-192.11 572,-173.5 567.29,-166.82 565.43,-158.56 565.09,-150.37"/>
<polygon fill="black" stroke="black" points="568.6,-150.25 565.39,-140.15 561.6,-150.05 568.6,-150.25"/>
<text text-anchor="middle" x="605.5" y="-162.3" font-family="Times,serif" font-size="14.00">c1 &amp; ~c0</text>
</g>
<!-- 19&#45;&gt;19 -->
<g id="edge6" class="edge">
<title>19&#45;&gt;19</title>
<path fill="none" stroke="black" d="M684.15,-227.71C695.7,-229.02 706,-225.86 706,-218.24 706,-213.01 701.13,-209.88 694.34,-208.86"/>
<polygon fill="black" stroke="black" points="694.18,-205.36 684.15,-208.78 694.13,-212.36 694.18,-205.36"/>
<text text-anchor="middle" x="733.5" y="-214.54" font-family="Times,serif" font-size="14.00">c0 &amp; c1</text>
</g>
<!-- 20&#45;&gt;13 -->
<g id="edge110" class="edge">
<title>20&#45;&gt;13</title>
<path fill="none" stroke="black" d="M2321.12,-508.83C2317,-501.96 2312.62,-494.26 2309,-486.98 2305.05,-479.04 2301.21,-470.29 2297.8,-462.02"/>
<polygon fill="black" stroke="black" points="2300.99,-460.58 2294.02,-452.6 2294.5,-463.19 2300.99,-460.58"/>
<text text-anchor="middle" x="2342.5" y="-475.78" font-family="Times,serif" font-size="14.00">c0 &amp; ~c1</text>
</g>
<!-- 20&#45;&gt;15 -->
<g id="edge3" class="edge">
<title>20&#45;&gt;15</title>
<path fill="none" stroke="black" d="M2361.66,-528.31C2388.95,-524.36 2430.58,-514.02 2454,-486.98 2511.83,-420.21 2464.98,-354.73 2399,-295.99 2372.1,-272.05 2359.46,-273.44 2325,-262.99 2248.86,-239.91 2156.06,-227.86 2105.74,-222.6"/>
<polygon fill="black" stroke="black" points="2105.97,-219.11 2095.67,-221.58 2105.26,-226.07 2105.97,-219.11"/>
<text text-anchor="middle" x="2496.5" y="-371.29" font-family="Times,serif" font-size="14.00">c0 &amp; c1</text>
</g>
<!-- 20&#45;&gt;20 -->
<g id="edge18" class="edge">
<title>20&#45;&gt;20</title>
<path fill="none" stroke="black" d="M2360.3,-541.4C2370.83,-542.06 2379.75,-538.84 2379.75,-531.73 2379.75,-527.07 2375.91,-524.08 2370.29,-522.76"/>
<polygon fill="black" stroke="black" points="2370.52,-519.27 2360.3,-522.07 2370.04,-526.25 2370.52,-519.27"/>
<text text-anchor="middle" x="2419.25" y="-528.03" font-family="Times,serif" font-size="14.00">~c0 &amp; ~c1</text>
</g>
<!-- 20&#45;&gt;24 -->
<g id="edge20" class="edge">
<title>20&#45;&gt;24</title>
<path fill="none" stroke="black" d="M2356.71,-515.84C2365.71,-508.35 2375.17,-498.43 2380,-486.98 2383.04,-479.79 2384.08,-471.66 2384.05,-463.78"/>
<polygon fill="black" stroke="black" points="2387.54,-463.46 2383.47,-453.67 2380.55,-463.86 2387.54,-463.46"/>
<text text-anchor="middle" x="2416.5" y="-475.78" font-family="Times,serif" font-size="14.00">c1 &amp; ~c0</text>
</g>
<!-- 21&#45;&gt;5 -->
<g id="edge100" class="edge">
<title>21&#45;&gt;5</title>
<path fill="none" stroke="black" d="M315.35,-517.19C289.62,-496.22 242.84,-457.86 240,-453.98 188.14,-383.27 165,-359.18 165,-271.49 165,-271.49 165,-271.49 165,-112.75 165,-39.91 727.64,-22.94 879.58,-19.68"/>
<polygon fill="black" stroke="black" points="879.87,-23.18 889.79,-19.47 879.72,-16.18 879.87,-23.18"/>
<text text-anchor="middle" x="180.5" y="-266.79" font-family="Times,serif" font-size="14.00">~c1</text>
</g>
<!-- 21&#45;&gt;8 -->
<g id="edge4" class="edge">
<title>21&#45;&gt;8</title>
<path fill="none" stroke="black" d="M328.57,-513.63C326.98,-501.4 326.64,-484.89 333,-471.98 334.75,-468.43 348.91,-457.2 362.42,-447.01"/>
<polygon fill="black" stroke="black" points="364.72,-449.66 370.64,-440.88 360.53,-444.06 364.72,-449.66"/>
<text text-anchor="middle" x="392" y="-475.78" font-family="Times,serif" font-size="14.00">c1 &amp; ~c0 &amp; ~c2</text>
</g>
<!-- 21&#45;&gt;14 -->
<g id="edge70" class="edge">
<title>21&#45;&gt;14</title>
<path fill="none" stroke="black" d="M358.88,-529.42C413.87,-526.17 536.47,-515.79 565,-486.98 597.91,-453.76 600.73,-396.96 598.39,-359.89"/>
<polygon fill="black" stroke="black" points="601.85,-359.22 597.58,-349.53 594.87,-359.77 601.85,-359.22"/>
<text text-anchor="middle" x="652" y="-423.54" font-family="Times,serif" font-size="14.00">c1 &amp; c2 &amp; ~c0</text>
</g>
<!-- 21&#45;&gt;21 -->
<g id="edge85" class="edge">
<title>21&#45;&gt;21</title>
<path fill="none" stroke="black" d="M355.15,-541.19C366.7,-542.5 377,-539.35 377,-531.73 377,-526.5 372.13,-523.37 365.34,-522.35"/>
<polygon fill="black" stroke="black" points="365.18,-518.85 355.15,-522.27 365.13,-525.85 365.18,-518.85"/>
<text text-anchor="middle" x="424" y="-528.03" font-family="Times,serif" font-size="14.00">c0 &amp; c1 &amp; c2</text>
</g>
<!-- 21&#45;&gt;25 -->
<g id="edge108" class="edge">
<title>21&#45;&gt;25</title>
<path fill="none" stroke="black" d="M321.91,-514.77C313.27,-502.02 299.89,-484.31 285,-471.98 271.83,-461.08 259.82,-468.63 251,-453.98 238.74,-433.61 242.41,-422.66 251,-400.49 259.32,-379.01 276.77,-359.86 292.16,-346.06"/>
<polygon fill="black" stroke="black" points="294.66,-348.52 299.96,-339.34 290.1,-343.21 294.66,-348.52"/>
<text text-anchor="middle" x="304" y="-423.54" font-family="Times,serif" font-size="14.00">c0 &amp; c1 &amp; ~c2</text>
</g>
<!-- 22&#45;&gt;9 -->
<g id="edge101" class="edge">
<title>22&#45;&gt;9</title>
<path fill="none" stroke="black" d="M1859.17,-528.11C1807.42,-522.75 1690.42,-509.13 1594,-486.98 1572.22,-481.98 1567.36,-478.57 1546,-471.98 1506.91,-459.94 1461.78,-446.27 1432.62,-437.46"/>
<polygon fill="black" stroke="black" points="1433.59,-434.1 1423,-434.56 1431.56,-440.8 1433.59,-434.1"/>
<text text-anchor="middle" x="1647" y="-475.78" font-family="Times,serif" font-size="14.00">c0 &amp; c2 &amp; ~c1</text>
</g>
<!-- 22&#45;&gt;15 -->
<g id="edge40" class="edge">
<title>22&#45;&gt;15</title>
<path fill="none" stroke="black" d="M1908.14,-516.36C1929.22,-503.22 1962.22,-484.05 1993,-471.98 2023.71,-459.95 2044.7,-479.98 2065,-453.98 2079.63,-435.24 2070.46,-423.63 2065,-400.49 2062.95,-391.78 2058.05,-391.19 2056,-382.49 2045.77,-339.17 2052.92,-287.78 2060.01,-254.39"/>
<polygon fill="black" stroke="black" points="2063.52,-254.74 2062.29,-244.22 2056.69,-253.21 2063.52,-254.74"/>
<text text-anchor="middle" x="2083.5" y="-371.29" font-family="Times,serif" font-size="14.00">c0 &amp; c1</text>
</g>
<!-- 22&#45;&gt;17 -->
<g id="edge32" class="edge">
<title>22&#45;&gt;17</title>
<path fill="none" stroke="black" d="M1881.18,-558.19C1878.28,-569.1 1873.79,-581.58 1867,-591.48 1860.79,-600.53 1852.18,-608.67 1843.66,-615.4"/>
<polygon fill="black" stroke="black" points="1841.52,-612.63 1835.59,-621.41 1845.7,-618.24 1841.52,-612.63"/>
<text text-anchor="middle" x="1933" y="-580.28" font-family="Times,serif" font-size="14.00">c2 &amp; ~c0 &amp; ~c1</text>
</g>
<!-- 22&#45;&gt;22 -->
<g id="edge80" class="edge">
<title>22&#45;&gt;22</title>
<path fill="none" stroke="black" d="M1911.3,-541.4C1921.83,-542.06 1930.75,-538.84 1930.75,-531.73 1930.75,-527.07 1926.91,-524.08 1921.29,-522.76"/>
<polygon fill="black" stroke="black" points="1921.52,-519.27 1911.3,-522.07 1921.04,-526.25 1921.52,-519.27"/>
<text text-anchor="middle" x="1995.75" y="-528.03" font-family="Times,serif" font-size="14.00">~c0 &amp; ~c1 &amp; ~c2</text>
</g>
<!-- 22&#45;&gt;23 -->
<g id="edge13" class="edge">
<title>22&#45;&gt;23</title>
<path fill="none" stroke="black" d="M1870.57,-509.51C1860.2,-496.76 1845.46,-481.27 1829,-471.98 1798.01,-454.5 1779.23,-475.64 1751,-453.98 1716.45,-427.48 1740.38,-392.87 1705,-367.49 1668.75,-341.49 1539.33,-329.99 1474.93,-325.78"/>
<polygon fill="black" stroke="black" points="1475.01,-322.28 1464.81,-325.15 1474.57,-329.27 1475.01,-322.28"/>
<text text-anchor="middle" x="1810" y="-423.54" font-family="Times,serif" font-size="14.00">c0 &amp; ~c1 &amp; ~c2</text>
</g>
<!-- 22&#45;&gt;24 -->
<g id="edge83" class="edge">
<title>22&#45;&gt;24</title>
<path fill="none" stroke="black" d="M1910.46,-520.23C1946.64,-504.87 2012.85,-477.51 2038,-471.98 2161.1,-444.95 2198.7,-484.42 2321,-453.98 2329.24,-451.93 2337.77,-448.73 2345.63,-445.28"/>
<polygon fill="black" stroke="black" points="2347.25,-448.38 2354.84,-440.99 2344.29,-442.04 2347.25,-448.38"/>
<text text-anchor="middle" x="2071.5" y="-475.78" font-family="Times,serif" font-size="14.00">c1 &amp; ~c0</text>
</g>
<!-- 23&#45;&gt;4 -->
<g id="edge5" class="edge">
<title>23&#45;&gt;4</title>
<path fill="none" stroke="black" d="M1416.98,-305.42C1395.57,-288.94 1364.59,-265.55 1358,-262.99 1290.74,-236.89 1074.49,-224.71 987.13,-220.76"/>
<polygon fill="black" stroke="black" points="987.04,-217.25 976.89,-220.3 986.73,-224.24 987.04,-217.25"/>
<text text-anchor="middle" x="1432" y="-266.79" font-family="Times,serif" font-size="14.00">c0 &amp; c2 &amp; ~c1</text>
</g>
<!-- 23&#45;&gt;5 -->
<g id="edge76" class="edge">
<title>23&#45;&gt;5</title>
<path fill="none" stroke="black" d="M1462.25,-310.82C1476.09,-303.42 1492.69,-292.36 1503,-277.99 1525.53,-246.59 1535.22,-222.4 1512,-191.5 1442.71,-99.26 1071.72,-40.48 953.33,-23.85"/>
<polygon fill="black" stroke="black" points="953.71,-20.37 943.32,-22.46 952.75,-27.3 953.71,-20.37"/>
<text text-anchor="middle" x="1519.5" y="-162.3" font-family="Times,serif" font-size="14.00">c0 &amp; c1</text>
</g>
<!-- 23&#45;&gt;9 -->
<g id="edge78" class="edge">
<title>23&#45;&gt;9</title>
<path fill="none" stroke="black" d="M1461.14,-336.93C1478.01,-348.33 1496.25,-365.6 1486,-382.49 1474.58,-401.32 1452.12,-412.42 1433.29,-418.72"/>
<polygon fill="black" stroke="black" points="1432.13,-415.42 1423.58,-421.68 1434.17,-422.12 1432.13,-415.42"/>
<text text-anchor="middle" x="1547" y="-371.29" font-family="Times,serif" font-size="14.00">c2 &amp; ~c0 &amp; ~c1</text>
</g>
<!-- 23&#45;&gt;12 -->
<g id="edge95" class="edge">
<title>23&#45;&gt;12</title>
<path fill="none" stroke="black" d="M1460.98,-308.94C1479.37,-297.06 1500.1,-278.87 1487,-262.99 1460.21,-230.52 1432.92,-261.03 1394,-244.99 1330.18,-218.69 1329.24,-183.75 1265,-158.5 1184.51,-126.86 1082.16,-118.08 1028.19,-115.66"/>
<polygon fill="black" stroke="black" points="1028.2,-112.16 1018.07,-115.25 1027.92,-119.15 1028.2,-112.16"/>
<text text-anchor="middle" x="1453" y="-214.54" font-family="Times,serif" font-size="14.00">c0 &amp; ~c1 &amp; ~c2</text>
</g>
<!-- 23&#45;&gt;15 -->
<g id="edge54" class="edge">
<title>23&#45;&gt;15</title>
<path fill="none" stroke="black" d="M1462.22,-311.17C1494.4,-297.62 1553.33,-274.51 1606,-262.99 1687.17,-245.24 1937.1,-227.75 2031.96,-221.58"/>
<polygon fill="black" stroke="black" points="2032.46,-225.06 2042.22,-220.92 2032.01,-218.07 2032.46,-225.06"/>
<text text-anchor="middle" x="1639.5" y="-266.79" font-family="Times,serif" font-size="14.00">c1 &amp; ~c0</text>
</g>
<!-- 23&#45;&gt;23 -->
<g id="edge15" class="edge">
<title>23&#45;&gt;23</title>
<path fill="none" stroke="black" d="M1463.3,-332.4C1473.83,-333.07 1482.75,-329.85 1482.75,-322.74 1482.75,-318.07 1478.91,-315.08 1473.29,-313.77"/>
<polygon fill="black" stroke="black" points="1473.52,-310.27 1463.3,-313.08 1473.04,-317.26 1473.52,-310.27"/>
<text text-anchor="middle" x="1547.75" y="-319.04" font-family="Times,serif" font-size="14.00">~c0 &amp; ~c1 &amp; ~c2</text>
</g>
<!-- 24&#45;&gt;15 -->
<g id="edge97" class="edge">
<title>24&#45;&gt;15</title>
<path fill="none" stroke="black" d="M2381.01,-400.41C2382.88,-371.47 2381.2,-324.83 2356,-295.99 2323.07,-258.31 2175.18,-233.66 2105.51,-223.93"/>
<polygon fill="black" stroke="black" points="2105.81,-220.44 2095.43,-222.55 2104.86,-227.38 2105.81,-220.44"/>
<text text-anchor="middle" x="2386.5" y="-319.04" font-family="Times,serif" font-size="14.00">c0</text>
</g>
<!-- 24&#45;&gt;24 -->
<g id="edge7" class="edge">
<title>24&#45;&gt;24</title>
<path fill="none" stroke="black" d="M2403.3,-436.9C2413.83,-437.57 2422.75,-434.35 2422.75,-427.24 2422.75,-422.57 2418.91,-419.58 2413.29,-418.26"/>
<polygon fill="black" stroke="black" points="2413.52,-414.77 2403.3,-417.57 2413.04,-421.75 2413.52,-414.77"/>
<text text-anchor="middle" x="2437.25" y="-423.54" font-family="Times,serif" font-size="14.00">~c0</text>
</g>
<!-- 25&#45;&gt;4 -->
<g id="edge107" class="edge">
<title>25&#45;&gt;4</title>
<path fill="none" stroke="black" d="M347.84,-318.77C406.54,-312.19 550.72,-295.57 671,-277.99 758.84,-265.15 781.67,-265.67 868,-244.99 884.27,-241.09 902.02,-235.67 916.83,-230.81"/>
<polygon fill="black" stroke="black" points="918.18,-234.04 926.56,-227.55 915.96,-227.41 918.18,-234.04"/>
<text text-anchor="middle" x="810.5" y="-266.79" font-family="Times,serif" font-size="14.00">c2 &amp; ~c1</text>
</g>
<!-- 25&#45;&gt;10 -->
<g id="edge92" class="edge">
<title>25&#45;&gt;10</title>
<path fill="none" stroke="black" d="M321.42,-295.92C323.26,-266.99 330.51,-220.36 357,-191.5 403.65,-140.68 486.36,-123.48 534.14,-117.68"/>
<polygon fill="black" stroke="black" points="534.79,-121.12 544.35,-116.55 534.02,-114.17 534.79,-121.12"/>
<text text-anchor="middle" x="390.5" y="-214.54" font-family="Times,serif" font-size="14.00">c1 &amp; ~c0</text>
</g>
<!-- 25&#45;&gt;12 -->
<g id="edge82" class="edge">
<title>25&#45;&gt;12</title>
<path fill="none" stroke="black" d="M346.15,-312.86C395.57,-295.27 501.7,-256.67 515,-244.99 548.04,-215.99 525.63,-181.66 563,-158.5 600.44,-135.29 917.8,-156.07 959,-140.5 960.6,-139.89 962.19,-139.17 963.75,-138.36"/>
<polygon fill="black" stroke="black" points="965.68,-141.28 972.26,-132.98 961.94,-135.36 965.68,-141.28"/>
<text text-anchor="middle" x="579.5" y="-214.54" font-family="Times,serif" font-size="14.00">~c1 &amp; ~c2</text>
</g>
<!-- 25&#45;&gt;19 -->
<g id="edge47" class="edge">
<title>25&#45;&gt;19</title>
<path fill="none" stroke="black" d="M346.69,-314.22C386.9,-302.57 467.2,-279.75 536,-262.99 573.1,-253.96 584.63,-259.36 620,-244.99 624.94,-242.99 629.94,-240.4 634.68,-237.63"/>
<polygon fill="black" stroke="black" points="636.73,-240.48 643.37,-232.22 633.03,-234.54 636.73,-240.48"/>
<text text-anchor="middle" x="563.5" y="-266.79" font-family="Times,serif" font-size="14.00">c0 &amp; c1</text>
</g>
</g>
</svg>
